<?xml version="1.0" encoding="utf-8"?>
<!-- Generator: Adobe Illustrator 24.2.0, SVG Export Plug-In . SVG Version: 6.00 Build 0)  -->
<svg version="1.1" id="Layer_1" xmlns="http://www.w3.org/2000/svg" xmlns:xlink="http://www.w3.org/1999/xlink" x="0px" y="0px"
	 viewBox="0 0 1920 1080" style="enable-background:new 0 0 1920 1080;" xml:space="preserve">
<g>
	<g>
		<path d="M597.15,198.12c-18.04-0.3-38.17-3.94-50.75-18.08c-10.86-12.21-14.29-31.22-2.66-44.13
			c9.82-10.89,25.9-13.92,39.85-14.97c7.92-0.6,15.93-0.6,23.87-0.2c10,0.5,19.81,2.5,27.51,9.32c7.12,6.31,12.27,14.78,17.5,22.62
			c5.5,8.26,10.75,16.69,15.5,25.41c9.79,17.99,16.79,37.04,20.39,57.22c7.33,41.1,2.84,83.28,3.54,124.75
			c0.73,43.31,4.63,86.47,8.83,129.56c4.2,43.11,8.71,86.23,10.66,129.52c0.96,21.27,2.3,43.14-0.59,64.31
			c-2.39,17.47-8.83,33.78-19.67,47.74c-19.74,25.43-51.66,41.8-84.09,40.53c-4.74-0.18-9.99-0.45-14.05-3.18
			c-3.77-2.54-5.87-6.79-7.21-11c-2.98-9.41-4.1-19.71-5.06-29.5c-1.93-19.56-2.24-40.32,4.59-59.04
			c6.19-16.98,19.73-31.92,37.89-35.92c16.12-3.54,32.3,4.55,38.66,19.93c2.8,6.78,3.07,14.37-0.1,21.06
			c-0.82,1.73,1.76,3.26,2.59,1.51c6.51-13.69,0.3-29.65-11.05-38.73c-13.24-10.59-31.26-9.26-45.29-0.86
			c-36.67,21.94-34.21,73.45-27.85,109.93c1.41,8.09,2.81,17.73,9.23,23.58c6.37,5.8,16.59,5.51,24.67,5.21
			c16.78-0.63,33.26-5.73,47.77-14.13c14.66-8.49,27.4-20.37,36.66-34.58c10.48-16.08,15.15-34.38,16.39-53.4
			c1.5-23.04,0.04-46.44-1.31-69.45c-1.37-23.43-3.39-46.83-5.61-70.19c-4.43-46.73-9.63-93.42-11.95-140.32
			c-1.16-23.33-1.39-46.64-0.95-69.99c0.42-22.29,1-44.64-0.99-66.87c-1.92-21.36-6.45-42.27-15.03-61.98
			c-8.44-19.4-19.89-37.67-32.3-54.77c-5.37-7.4-11.58-14.28-20.24-17.76c-9.25-3.72-19.62-3.75-29.44-3.79
			c-15.06-0.06-31.39,1.08-44.94,8.29c-13.48,7.17-21.12,21.3-18.01,36.54c3.62,17.72,18.46,29.81,35.1,34.9
			c9.04,2.76,18.54,3.74,27.97,3.9C599.08,201.15,599.08,198.15,597.15,198.12L597.15,198.12z"/>
	</g>
</g>
<g>
	<g>
		<path d="M697.15,469.98c17.94,0.31,35.89,0.25,53.83-0.2c17.94-0.44,35.87-1.27,53.78-2.47c10.07-0.67,20.13-1.47,30.17-2.38
			c1.91-0.17,1.93-3.17,0-3c-17.87,1.62-35.78,2.87-53.7,3.74c-17.93,0.87-35.87,1.36-53.81,1.47c-10.09,0.06-20.18,0-30.27-0.17
			C695.22,466.94,695.22,469.94,697.15,469.98L697.15,469.98z"/>
	</g>
</g>
<g>
	<g>
		<path d="M931.27,214.42c18.22-0.31,38.33-3.94,51.57-17.56c11.18-11.5,16.39-29.52,8.08-44.1c-7.47-13.09-22.86-18.39-36.96-20.5
			c-7.75-1.16-15.59-1.52-23.42-1.46c-9.62,0.07-19.74,0.16-28.77,3.86c-8.75,3.59-14.97,10.61-20.38,18.12
			c-6.17,8.56-11.99,17.43-17.43,26.48c-11,18.28-19.91,37.71-24.74,58.55c-10.14,43.73-5.01,89.21-5.66,133.64
			c-0.69,46.94-5.16,93.71-9.74,140.4c-4.58,46.71-9.3,93.47-10.48,140.42c-0.55,21.78-1.13,44.48,6.02,65.38
			c5.43,15.89,15.1,30.17,27.39,41.56c12.31,11.42,27.25,20.06,43.37,24.81c8.03,2.37,16.37,3.75,24.74,4.02
			c8.13,0.27,18.25,0.47,24.53-5.53c6.29-6.02,7.62-15.75,9.02-23.89c1.93-11.23,3.09-22.61,3.38-34
			c0.51-19.66-1.77-40.83-12.91-57.61c-9.43-14.19-25.81-25.21-43.34-24.49c-15.19,0.63-28.67,11.55-32.93,26.12
			c-1.99,6.79-1.54,13.86,1.5,20.26c0.83,1.74,3.42,0.22,2.59-1.51c-6.77-14.25,2.27-31.05,15.21-38.15
			c15.56-8.54,34.65-1.47,46.61,10.02c14.11,13.56,19.17,33.39,20.14,52.36c0.52,10.11,0.04,20.29-0.98,30.36
			c-0.98,9.71-2.08,20-5.14,29.32c-1.38,4.19-3.59,8.4-7.45,10.81c-4.14,2.58-9.4,2.79-14.14,2.95c-8.12,0.27-16.24-0.55-24.15-2.37
			c-15.86-3.65-30.81-11.19-43.33-21.57c-12.25-10.15-22.31-23.02-28.64-37.65c-8.06-18.6-8.9-39.17-8.68-59.15
			c0.46-43.28,4.29-86.45,8.46-129.51c4.18-43.11,8.76-86.21,10.88-129.48c1.05-21.48,1.38-42.97,1.01-64.48
			c-0.35-20.7-1.01-41.42,0.2-62.1c1.2-20.46,4.34-40.89,11.38-60.21c6.88-18.89,17.1-36.37,28.23-53.03
			c5.23-7.83,10.39-16.26,17.57-22.48c7.77-6.73,17.7-8.54,27.68-9c15.19-0.7,31.25-0.5,45.79,4.45
			c14.38,4.9,26.01,16.46,24.67,32.63c-1.53,18.4-16.83,31.42-33.54,36.53c-8.8,2.69-18,3.63-27.17,3.79
			C929.34,211.45,929.34,214.45,931.27,214.42L931.27,214.42z"/>
	</g>
</g>
<g>
	<g>
		<path d="M1049.99,672.19c10.19,14.42,34.2,5.64,38.27-9.77c2.7-10.22-2.51-20.88-10.04-27.63c-8.35-7.48-19.4-10.83-30.52-9.81
			c-23.32,2.15-41.79,21.18-51.77,41.15c-11.91,23.84-14.98,53.78-8.82,79.66c4.78,20.09,17.99,42.15,40.57,44.24
			c25.67,2.37,45.39-21.65,59.3-39.84c34.05-44.56,55.49-97.04,75.44-149c22.41-58.34,44.91-116.78,63.09-176.61
			c1.14-3.75,2.26-7.5,3.36-11.26c0.49-1.67,0.97-3.35,1.46-5.02c0.2-0.69,0.38-1.41,0.62-2.09c0.8-2.3,0.58-1.84,3.11-2.32
			c0.62,0.62,1.23,1.23,1.85,1.85c20.3-73.62,35.66-148.58,45.89-224.25c2.86-21.2,5.33-42.45,7.4-63.75
			c0.18-1.84-2.36-1.8-2.95-0.4c-13.53,32.17-8.38,68.03-0.62,100.95c8.72,37.05,19.8,73.58,31.01,109.94
			c22.82,74.03,47.81,147.37,73.62,220.41c12.91,36.52,26.02,72.98,39.18,109.41c5.62,15.56,10.59,31.58,17.63,46.57
			c5.49,11.7,12.94,23.52,24.38,30.18c13.01,7.58,28.08,5.94,41.23-0.37c7.42-3.56,14.2-8.29,20.69-13.32
			c6.79-5.27,13.59-10.73,19.71-16.78c22.58-22.35,24.53-56.35,14.83-85.27c-4.21-12.55-11.11-25-21.78-33.17
			c-10.42-7.99-23.88-10.34-36.02-4.87c-11.8,5.32-20.94,17.04-21.64,30.16c-0.69,12.99,7.23,25.38,18.2,31.88
			c5.62,3.33,12.03,5.04,18.56,4.8c1.92-0.07,1.93-3.07,0-3c-13.86,0.51-26.95-8.85-31.83-21.72c-5.11-13.45,0.7-27.89,12.13-36.04
			c11.5-8.2,25.98-7.82,37.45,0.19c11.16,7.79,18.22,20.81,22.33,33.49c4.56,14.1,6.46,29.52,4.29,44.24
			c-2.32,15.71-9.61,28.92-21.25,39.67c-20.29,18.73-53.75,46.39-80.85,23.7c-10.09-8.46-16.28-20.87-21.16-32.85
			c-6.19-15.22-11.36-30.9-16.94-46.35c-12.26-33.95-24.46-67.92-36.49-101.96c-23.97-67.85-47.23-135.96-68.7-204.65
			c-10.69-34.19-21.09-68.5-30.19-103.15c-8.36-31.85-17.22-65.78-11.46-98.87c1.34-7.71,3.53-15.2,6.56-22.41
			c-0.98-0.13-1.96-0.27-2.95-0.4c-7.38,75.87-19.85,151.23-37.36,225.42c-4.88,20.69-10.16,41.29-15.82,61.78
			c-0.32,1.17,0.75,2.05,1.85,1.85c3.18-0.6,2.66-4.82,0.4-6.28c-3.88-2.5-6.55,2.87-7.46,5.75c-4.43,14.13-8.45,28.37-13.03,42.45
			c-9.29,28.58-19.46,56.86-29.96,85.02c-10.14,27.18-20.39,54.34-30.97,81.35c-9.86,25.18-20.28,50.18-32.62,74.27
			c-12.23,23.89-26.37,46.91-43.44,67.66c-14.54,17.67-38.37,39.46-62.69,26.15c-21.08-11.54-27.42-39.48-27.86-61.52
			c-0.52-26.2,6.75-53.86,24.6-73.63c15.19-16.82,41.04-28.13,61.54-13.26c8.75,6.35,16.03,18.72,11.03,29.54
			c-3.57,7.74-12.73,12.79-21.16,12.23c-4.31-0.29-8.17-2.27-10.68-5.82C1051.48,669.11,1048.87,670.61,1049.99,672.19
			L1049.99,672.19z"/>
	</g>
</g>
<g>
	<g>
		<path d="M1231.64,402.73c25.97-4.97,51.93-9.94,77.9-14.91c7.35-1.41,14.7-2.81,22.05-4.22c1.89-0.36,1.09-3.25-0.8-2.89
			c-25.97,4.97-51.93,9.94-77.9,14.91c-7.35,1.41-14.7,2.81-22.05,4.22C1228.95,400.2,1229.75,403.1,1231.64,402.73L1231.64,402.73z
			"/>
	</g>
</g>
<g>
	<g>
		<path d="M1685.83,915.31c1.93,0,1.93-3,0-3C1683.9,912.31,1683.9,915.31,1685.83,915.31L1685.83,915.31z"/>
	</g>
</g>
</svg>
